P3 8 8 255 0 226 255 4 194 250 8 161 246 12 129 242 16 97 238 20 64 234
24 32 230 28 0 226 32 230 222 36 198 218 40 165 214 44 133 210 48 101 206
52 68 202 56 36 198 60 4 194 64 234 190 68 202 186 72 170 182 76 137 178
80 105 174 85 72 170 89 40 165 93 8 161 97 238 157 101 206 153 105 174
149 109 141 145 113 109 141 117 76 137 121 44 133 125 12 129 129 242 125
133 210 121 137 178 117 141 145 113 145 113 109 149 80 105 153 48 101 157
16 97 161 246 93 165 214 89 170 182 85 174 149 80 178 117 76 182 85 72
186 52 68 190 20 64 194 250 60 198 218 56 202 186 52 206 153 48 210 121
44 214 89 40 218 56 36 222 24 32 226 255 28 230 222 24 234 190 20 238 157
16 242 125 12 246 93 8 250 60 4 255 28 0 