P3 8 8 255 0 227 255 4 194 251 8 162 247 12 130 243 16 97 239 20 65 235
24 32 231 28 0 227 32 231 223 36 198 219 40 166 215 45 134 210 49 101 206
53 69 202 57 36 198 61 4 194 65 235 190 69 202 186 73 170 182 77 138 178
81 105 174 85 73 170 89 40 166 93 8 162 97 239 158 101 206 154 105 174
150 109 142 146 113 109 142 117 77 138 121 45 134 125 12 130 130 243 125
134 210 121 138 178 117 142 146 113 146 113 109 150 81 105 154 49 101 158
16 97 162 247 93 166 215 89 170 182 85 174 150 81 178 117 77 182 85 73
186 53 69 190 20 65 194 251 61 198 219 57 202 186 53 206 154 49 210 121
45 215 89 40 219 57 36 223 24 32 227 255 28 231 223 24 235 190 20 239 158
16 243 125 12 247 93 8 251 61 4 255 28 0 