P3 8 8 65535 0 58253 65535 1040 49931 64495 2080 41610 63455 3121 33288
62414 4161 24966 61374 5201 16644 60334 6241 8322 59294 7282 0 58253 8322
59294 57213 9362 50972 56173 10402 42650 55133 11443 34328 54092 12483
26006 53052 13523 17684 52012 14563 9362 50972 15604 1040 49931 16644 60334
48891 17684 52012 47851 18724 43690 46811 19765 35368 45770 20805 27046
44730 21845 18724 43690 22885 10402 42650 23925 2080 41610 24966 61374
40569 26006 53052 39529 27046 44730 38489 28086 36408 37449 29127 28086
36408 30167 19765 35368 31207 11443 34328 32247 3121 33288 33288 62414
32247 34328 54092 31207 35368 45770 30167 36408 37449 29127 37449 29127
28086 38489 20805 27046 39529 12483 26006 40569 4161 24966 41610 63455
23925 42650 55133 22885 43690 46811 21845 44730 38489 20805 45770 30167
19765 46811 21845 18724 47851 13523 17684 48891 5201 16644 49931 64495
15604 50972 56173 14563 52012 47851 13523 53052 39529 12483 54092 31207
11443 55133 22885 10402 56173 14563 9362 57213 6241 8322 58253 65535 7282
59294 57213 6241 60334 48891 5201 61374 40569 4161 62414 32247 3121 63455
23925 2080 64495 15604 1040 65535 7282 0 