P3 8 8 65535 0 58253 65535 1040 49931 64494 2080 41609 63454 3120 33287
62414 4160 24965 61374 5201 16643 60333 6241 8321 59293 7281 0 58253 8321
59293 57213 9362 50971 56172 10402 42649 55132 11442 34327 54092 12482
26005 53052 13523 17684 52011 14563 9362 50971 15603 1040 49931 16643 60333
48891 17684 52011 47850 18724 43690 46810 19764 35368 45770 20804 27046
44730 21845 18724 43690 22885 10402 42649 23925 2080 41609 24965 61374
40569 26005 53052 39529 27046 44730 38488 28086 36408 37448 29126 28086
36408 30166 19764 35368 31207 11442 34327 32247 3120 33287 33287 62414
32247 34327 54092 31207 35368 45770 30166 36408 37448 29126 37448 29126
28086 38488 20804 27046 39529 12482 26005 40569 4160 24965 41609 63454
23925 42649 55132 22885 43690 46810 21845 44730 38488 20804 45770 30166
19764 46810 21845 18724 47850 13523 17684 48891 5201 16643 49931 64494
15603 50971 56172 14563 52011 47850 13523 53052 39529 12482 54092 31207
11442 55132 22885 10402 56172 14563 9362 57213 6241 8321 58253 65535 7281
59293 57213 6241 60333 48891 5201 61374 40569 4160 62414 32247 3120 63454
23925 2080 64494 15603 1040 65535 7281 0 