P2 8 8 65535 0 1040 2080 3121 4161 5201 6241 7282 8322 9362 10402 11443
12483 13523 14563 15604 16644 17684 18724 19765 20805 21845 22885 23925
24966 26006 27046 28086 29127 30167 31207 32247 33288 34328 35368 36408
37449 38489 39529 40569 41610 42650 43690 44730 45770 46811 47851 48891
49931 50972 52012 53052 54092 55133 56173 57213 58253 59294 60334 61374
62414 63455 64495 65535 