P2 8 8 65535 0 1040 2080 3120 4160 5201 6241 7281 8321 9362 10402 11442
12482 13523 14563 15603 16643 17684 18724 19764 20804 21845 22885 23925
24965 26005 27046 28086 29126 30166 31207 32247 33287 34327 35368 36408
37448 38488 39529 40569 41609 42649 43690 44730 45770 46810 47850 48891
49931 50971 52011 53052 54092 55132 56172 57213 58253 59293 60333 61374
62414 63454 64494 65535 