P3 64 64

255 243   0 255 243  13 255 243  25 255 243  36 254 245  50 254 245  62 253 246  73 252 246  86 251 247  97 250 247 109 249 248 120 247 248 131 246 249 142 243 249 152 242 249 162 240 250 171 238 250 179 236 250 189 233 251 197 231 251 205 227 251 211 225
252 219 222 252 225 219 252 231 215 253 236 211 253 240 208 253 243 205 253 247 201 254 250 197 254 252 193 254 254 189 254 255 185 254 255 179 254 255 176 254 254 171 255 252 167 255 250 162 255 247 157 255 243 152 255 240 147 255 236 142 255 231 136 255
225 131 255 219 126 255 211 120 255 205 115 255 197 109 255 189 103 255 179  97 255 171  92 255 162  86 255 152  80 254 142  73 254 131  68 254 120  62 254 109  56 254  97 50 254  86 44 253  73 36 253  62 31 253  50 25 253  36 19 252  25 13 252  13   6 242
  0 254 242   9 255 243  22 255 243  34 255 243  47 255 245  59 255 245  71 254 246  83 254 246  95 253 247 105 252 247 117 251 248 128 250 248 139 249 248 149 247 249 159 246 249 169 243 250 178 242 250 187 240 250 195 238 251 203 236 251 210 233 251 217
231 252 223 227 252 229 225 252 234 222 253 239 219 253 243 215 253 247 211 253 249 208 253 252 205 254 253 201 254 255 197 254 255 193 254 255 189 254 254 185 254 253 179 255 251 176 255 248 171 255 245 167 255 241 162 255 237 157 255 232 152 255 226 147 255 220 142 255 214 136 255 207 131 255 199 126 255 191 120 255 183 115 255 174 109 255 163 103 255 154  97 255 144  92 254 134  86 254 123  80 254 112  73 254 100  68 254  89 62 254  77 56 253  65 50 253  52 44 253  40 36 253  28 31 253  16 25 241   0 252 242   6 253 242  19 254 243  31 254 243  44 255 243  56 255 243  68 255 245  80 255 245  92 255 246 103 254 246 115 254 247 126 253 247 136 252 248 147 251 248 157 250 249 167 249 249 176 247 249 185 246 250 193 243 250 201 242 251 208 240 251 215 238 251 222 236 252 227 233 252 233 231 252 238 227 252 242 225 253 246 222 253 249 219 253 251 215 253 253 211 254 254 208 254 255 205 254 255 201 254 254 197 254 253 193 254 251 189 255 249 185 255 246 179 255 242 176 255 238 171 255 233 167 255 227 162 255 222 157 255 215 152 255 208 147 255 201 142 255 193 136 255 185 131 255 176 126 255 167 120 255 157 115 255 147 109 255 136 103 254 126  97 254 115  92 254 103  86 254  92 80 254  80 73 254  68 68 254  56 62 253  44 56 253  31 50 253  19 44 240   0 249 241   3 250 241  16 251 242  28 252 243  40 253 243  52 254 243  65 254 243  77 255 245  89 255 245 100 255 246 112 255 246 123 255 247 134 254 247 144 254 248 154 253 248 163 252 249 174 251 249 183 250 249 191 249 250 199 247 250 207 246 250 214 243 251 220 242 251 226 240 251 232 238 252 237 236 252 241 233 252 245 231 253 248 227 253 251 225 253 253 222 253 254 219 254 255 215 254 255 211 254 255 208 254 253 205 254 252 201 254 249 197 254 247 193 255 243 189 255 239 185 255 234 179 255 229 176 255 223 171 255 217 167 255 210 162 255 203 157 255 195 152 255 187 147 255 178 142 255 169 136 255 159 131 255 149 126 255 139 120 255 128 115 255 117 109 254 105 103 254  95 97 254  83 92 254  71 86 254  59 80 254  47 73 253  34 68 253  22 62 239   0 243 240   0 246 241  13 247 241  25 249 242  36 250 242  50 251 243  62 252 243  73 253 243  86 254 245  97 254 245 109 255 246 120 255 246 131 255 247 142 255 247 152 255 248 162 254 248 171 254 248 179 253 249 189 252 249 197 251 250 205 250 250 211 249 250 219 247 251 225 246 251 231 243 251 236 242 252 240 240 252 243 238 252 247 236 253 250 233 253 252 231 253 254 227 253 255 225 253 255 222 254 255 219 254 254 215 254 252 211 254 250 208 254 247 205 254 243 201 255 240 197 255 236 193 255 231 189 255 225 185 255 219 179 255 211 176 255 205 171 255 197 167 255 189 162 255 179 157 255 171 152 255 162 147 255 152 142 255 142 136 255 131 131 255 120 126 255 109 120 254  97 115 254  86 109 254  73 103 254  62 97 254  50 92 254  36 86 253  25 80 238   0 238 239   0 240 240   9 242 240  22 243 241  34 246 242  47 247 242  59 249 243  71 250 243  83 251 243  95 252 243 105 253 245 117 254 245 128 254 246 139 255 246 149 255 247 159 255 247 169 255 248 178 255 248 187 254 249 195 254 249 203 253 249 210 252 250 217 251 250 223 250 251 229 249 251 234 247 251 239 246 252 243 243 252 247 242 252 249 240 252 252 238 253 253 236 253 255 233 253 255 231 253 255 227 254 254 225 254 253 222 254 251 219 254 248 215 254 245 211 254 241 208 255 237 205 255 232 201 255 226 197 255 220 193 255 214 189 255 207 185 255 199 179 255 191 176 255 183 171 255 174 167 255 163 162 255 154 157 255 144 152 255 134 147 255 123 142 255 112 136 255 100 131 254  89 126 254  77 120 254  65 115 254  52 109 254  40 103 254  28 97 237   0 231 238   0 233 239   6 236 239  19 238 240  31 240 241  44 242 241  56 243 242  68 246 243  80 247 243  92 249 243 103 250 243 115 251 245 126 252 245 136 253 246 147 254 246 157 254 247 167 255 247 176 255 248 185 255 248 193 255 249 201 255 249 208 254 249 215 254 250 222 253 250 227 252 250 233 251 251 238 250 251 242 249 251 246 247 252 249 246 252 251 243 252 253 242 253 254 240 253 255 238 253 255 236 253 254 233 254 253 231 254 251 227 254 249 225 254 246 222 254 242 219 254 238 215 254 233 211 255 227 208 255 222 205 255 215 201 255 208 197 255 201 193 255 193 189 255 185 185 255 176 179 255 167 176 255 157 171 255 147 167 255 136 162 255 126 157 255 115 152 255 103 147 255  92 142 255  80 136 254  68 131 254  56 126 254  44 120 254  31 115 237   0 222 237   0 225 238   3 227 239  16 231 239  28 233 240  40 236 241  52 238 241  65 240 242  77 242 242  89 243 243 100 246 243 112 247 243 123 249 245 134 250 245 144 251 246 154 252 246 163 253 247 174 254 247 183 254 248 191 255 248 199 255 248 207 255 249 214 255 249 220 255 250 226 254 250 232 254 250 237 253 251 241 252 251 245 251 251 248 250 252 251 249 252 253 247 252 254 246 253 255 243 253 255 242 253 255 240 253 253 238 253 252 236 254 249 233 254 247 231 254 243 227 254 239 225 254 234 222 254 229 219 255 223 215 255 217 211 255 210 208 255 203 205 255 195 201 255 187 197 255 178 193 255 169 189 255 159 185 255 149 179 255 139 176 255 128 171 255 117 167 255 105 162 255  95 157 255  83 152 255  71 147 254  59 142 254  47 136 254  34 131 236   0 211 236   0 215 237   0 219 238  13 222 238  25 225 239  36 227 240  50 231 240  62 233 241  73 236 242  86 238 242  97 240 243 109 242 243 120 243 243 131 246 243 142 247 245 152 249 245 162 250 246 171 251 246 179 252 247 189 253 247 197 254 248 205 254 248 211 255 249 219 255 249 225 255 249 231 255 250 236 255 250 240 254 251 243 254 251 247 253 251 250 252 252 252 251 252 254 250 252 255 249 252 255 247 253 255 246 253 254 243 253 252 242 253 250 240 254 247 238 254 243 236 254 240 233 254 236 231 254 231 227 254 225 225 255 219 222 255 211 219 255 205 215 255 197 211 255 189 208 255 179 205 255 171 201 255 162 197 255 152 193 255 142 189 255 131 185 255 120 179 255 109 176 255  97 171 255  86 167 255  73 162 255  62 157 254  50 152 254  36 147 235   0 201 235   0 205 236   0 208 237   9 211 237  22 215 238  34 219 239  47 222 239  59 225 240  71 227 241  83 231 241  95 233 242 105 236 243 117 238 243 128 240 243 139 242 243 149 243 245 159 246 245 169 247 246 178 249 246 187 250 247 195 251 247 203 252 248 210 253 248 217 254 249 223 254 249 229 255 249 234 255 250 239 255 250 243 255 250 247 255 251 249 254 251 252 254 251 253 253 252 255 252 252 255 251 252 255 250 253 254 249 253 253 247 253 251 246 253 248 243 254 245 242 254 241 240 254 237 238 254 232 236 254 226 233 254 220 231 254 214 227 255 207 225 255 199 222 255 191 219 255 183 215 255 174 211 255 163 208 255 154 205 255 144 201 255 134 197 255 123 193 255 112 189 255 100 185 255  89 179 255  77 176 255  65 171 255  52 167 255  40 162 234   0 189 234   0 193 235   0 197 236   6 201 237  19 205 237  31 208 238  44 211 239  56 215 239  68 219 240  80 222 241  92 225 241 103 227 242 115 231 242 126 233 243 136 236 243 147 238 243 157 240 245 167 242 245 176 243 246 185 246 246 193 247 247 201 249 247 208 250 248 215 251 248 222 252 248 227 253 249 233 254 249 238 254 250 242 255 250 246 255 250 249 255 251 251 255 251 253 255 251 254 254 252 255 254 252 255 253 252 254 252 253 253 251 253 251 250 253 249 249 253 246 247 253 242 246 254 238 243 254 233 242 254 227 240 254 222 238 254 215 236 254 208 233 255 201 231 255 193 227 255 185 225 255 176 222 255 167 219 255 157 215 255 147 211 255 136 208 255 126 205 255 115 201 255 103 197 255  92 193 255  80 189 255  68 185 255  56 179 255  44 176 233   0 176 233   0 179 234   0 185 235   3 189 236  16 193 236  28 197 237  40 201 238  52 205 238  65 208 239  77 211 240  89 215 240 100 219 241 112 222 242 123 225 242 134 227 243 144 231 243 154 233 243 163 236 243 174 238 245 183 240 245 191 242 246 199 243 246 207 246 247 214 247 247 220 249 248 226 250 248 232 251 249 237 252 249 241 253 249 245 254 250 248 254 250 251 255 251 253 255 251 254 255 251 255 255 252 255 255 252 255 254 252 253 254 252 252 253 253 249 252 253 247 251 253 243 250 253 239 249 254 234 247 254 229 246 254 223 243 254 217 242 254 210 240 254 203 238 255 195 236 255 187 233 255 178 231 255 169 227 255 159 225 255 149 222 255 139 219 255 128 215 255 117 211 255 105 208 255  95 205 255  83 201 255  71 197 255  59 193 255  47 189 232   0 162 232   0 167 233   0 171 234   0 176 235  13 179 235  25 185 236  36 189 237  50 193 237  62 197 238  73 201 239  86 205 239  97 208 240 109 211 241 120 215 241 131 219 242 142 222 243 152 225 243 162 227 243 171 231 243 179 233 245 189 236 245 197 238 246 205 240 246 211 242 247 219 243 247 225 246 248 231 247 248 236 249 249 240 250 249 243 251 249 247 252 250 250 253 250 252 254 250 254 254 251 255 255 251 255 255 251 255 255 252 254 255 252 252 255 252 250 254 253 247 254 253 243 253 253 240 252 253 236 251 254 231 250 254 225 249 254 219 247 254 211 246 254 205 243 254 197 242 254 189 240 255 179 238 255 171 236 255 162 233 255 152 231 255 142 227 255 131 225 255 120 222 255 109 219 255  97 215 255  86 211 255  73 208 255  62 205 255  50 201 231   0 147 231   0 152 232   0 157 233   0 162 234   9 167 234  22 171 235  34 176 236  47 179 237  59 185 237  71 189 238  83 193 239  95 197 239 105 201 240 117 205 241 128 208 241 139 211 242 149 215 242 159 219 243 169 222 243 178 225 243 187 227 245 195 231 245 203 233 246 210 236 246 217 238 247 223 240 247 229 242 248 234 243 248 239 246 248 243 247 249 247 249 249 249 250 250 252 251 250 253 252 250 255 253 251 255 254 251 255 254 251 254 255 252 253 255 252 251 255 252 248 255 253 245 255 253 241 254 253 237 254 253 232 253 253 226 252 254 220 251 254 214 250 254 207 249 254 199 247 254 191 246 254 183 243 255 174 242 255 163 240 255 154 238 255 144 236 255 134 233 255 123 231 255 112 227 255 100 225 255  89 222 255  77 219 255  65 215 255  52 211 229   0 131 230   0 136 231   0 142 232   0 147 233   6 152 233  19 157 234  31 162 235  44 167 236  56 171 236  68 176 237  80 179 238  92 185 238 103 189 239 115 193 240 126 197 240 136 201 241 147 205 242 157 208 242 167 211 243 176 215 243 185 219 243 193 222 243 201 225 245 208 227 245 215 231 246 222 233 246 227 236 247 233 238 247 238 240 248 242 242 248 246 243 249 249 246 249 251 247 249 253 249 250 254 250 250 255 251 251 255 252 251 254 253 251 253 254 252 251 254 252 249 255 252 246 255 252 242 255 253 238 255 253 233 255 253 227 254 253 222 254 254 215 253 254 208 252 254 201 251 254 193 250 254 185 249 254 176 247 255 167 246 255 157 243 255 147 242 255 136 240 255 126 238 255 115 236 255 103 233 255  92 231 255  80 227 255  68 225 255  56 222 227   0 115 229   0 120 230   0 126 231   0 131 232   3 136 232  16 142 233  28 147 234  40 152 235  52 157 235  65 162 236  77 167 237  89 171 237 100 176 238 112 179 239 123 185 239 134 189 240 144 193 241 154 197 241 163 201 242 174 205 243 183 208 243 191 211 243 199 215 243 207 219 245 214 222 245 220 225 246 226 227 246 232 231 247 237 233 247 241 236 248 245 238 248 248 240 249 251 242 249 253 243 249 254 246 250 255 247 250 255 249 250 255 250 251 253 251 251 252 252 251 249 253 252 247 254 252 243 254 252 239 255 253 234 255 253 229 255 253 223 255 253 217 255 254 210 254 254 203 254 254 195 253 254 187 252 254 178 251 254 169 250 254 159 249 255 149 247 255 139 246 255 128 243 255 117 242 255 105 240 255  95 238 255  83 236 255  71 233 255  59 231 227   0  97 227   0 103 229   0 109 230   0 115 231   0 120 231  13 126 232  25 131 233  36 136 234  50 142 234  62 147 235  73 152 236  86 157 237  97 162 237 109 167 238 120 171 239 131 176 239 142 179 240 152 185 241 162 189 241 171 193 242 179 197 242 189 201 243 197 205 243 205 208 243 211 211 245 219 215 245 225 219 246 231 222 246 236 225 247 240 227 247 243 231 248 247 233 248 250 236 248 252 238 249 254 240 249 255 242 250 255 243 250 255 246 250 254 247 251 252 249 251 250 250 251 247 251 252 243 252 252 240 253 252 236 254 253 231 254 253 225 255 253 219 255 253 211 255 253 205 255 254 197 255 254 189 254 254 179 254 254 171 253 254 162 252 254 152 251 255 142 250 255 131 249 255 120 247 255 109 246 255  97 243 255  86 242 255  73 240 255  62 238 226   0  80 227   0  86 227   0  92 229   0  97 229   0 103 230   9 109 231  22 115 232  34 120 233  47 126 233  59 131 234  71 136 235  83 142 236  95 147 236 105 152 237 117 157 238 128 162 238 139 167 239 149 171 240 159 176 240 169 179 241 178 185 242 187 189 242 195 193 243 203 197 243 210 201 243 217 205 243 223 208 245 229 211 245 234 215 246 239 219 246 243 222 247 247 225 247 249 227 248 252 231 248 253 233 249 255 236 249 255 238 249 255 240 250 254 242 250 253 243 251 251 246 251 248 247 251 245 249 252 241 250 252 237 251 252 232 252 252 226 253 253 220 254 253 214 254 253 207 255 253 199 255 254 191 255 254 183 255 254 174 255 254 163 254 254 154 254 254 144 253 255 134 252 255 123 251 255 112 250 255 100 249 255  89 247 255  77 246 255  65 243 225   0  62 226   0  68 227   0  73 227   0  80 227   0  86 229   6  92 230  19 97 231  31 103 232  44 109 232  56 115 233  68 120 234  80 126 235  92 131 235 103 136 236 115 142 237 126 147 237 136 152 238 147 157 239 157 162 239 167 167 240 176 171 241 185 176 241 193 179 242 201 185 243 208 189 243 215 193 243 222 197 243 227 201 245 233 205 245 238 208 246 242 211 246 246 215 247 249 219 247 251 222 248 253 225 248 254 227 249 255 231 249 255 233 249 254 236 250 253 238 250 251 240 250 249 242 251 246 243 251 242 246 251 238 247 252 233 249 252 227 250 252 222 251 253 215 252 253 208 253 253 201 254 253 193 254 254 185 255 254 176 255 254 167 255 254 157 255 254 147 255 254 136 254 254 126 254 255 115 253 255 103 252 255  92 251 255  80 250 255  68 249 224   0  44 225   0  50 225   0  56 226   0  62 227   0  68 227   3  73 229  16 80 230  28 86 231  40 92 231  52 97 232  65 103 233  77 109 234  89 115 234 100 120 235 112 126 236 123 131 237 134 136 237 144 142 238 154 147 239 163 152 239 174 157 240 183 162 241 191 167 241 199 171 242 207 176 242 214 179 243 220 185 243 226 189 243 232 193 245 237 197 245 241 201 246 245 205 246 248 208 247 251 211 247 253 215 248 254 219 248 255 222 248 255 225 249 255 227 249 253 231 250 252 233 250 249 236 250 247 238 251 243 240 251 239 242 251 234 243 252 229 246 252 223 247 252 217 249 253 210 250 253 203 251 253 195 252 253 187 253 253 178 254 254 169 254 254 159 255 254 149 255 254 139 255 254 128 255 254 117 255 255 105 254 255  95 254 255  83 253 255  71 252 222   0  25 223   0  31 224   0  36 225   0  44 226   0  50 227   0  56 227  13 62 229  25 68 229  36 73 230  50 80 231  62 86 232  73 92 233  86 97 233  97 103 234 109 109 235 120 115 236 131 120 236 142 126 237 152 131 238 162 136 238 171 142 239 179 147 240 189 152 240 197 157 241 205 162 242 211 167 242 219 171 243 225 176 243 231 179 243 236 185 243 240 189 245 243 193 245 247 197 246 250 201 246 252 205 247 254 208 247 255 211 248 255 215 248 255 219 249 254 222 249 252 225 249 250 227 250 247 231 250 243 233 251 240 236 251 236 238 251 231 240 252 225 242 252 219 243 252 211 246 252 205 247 253 197 249 253 189 250 253 179 251 253 171 252 254 162 253 254 152 254 254 142 254 254 131 255 254 120 255 254 109 255 255  97 255 255  86 255 255  73 254 221   0 6 222   0  13 223   0  19 224   0  25 225   0  31 226   0  36 227   9  44 227  22 50 227  34 56 229  47 62 230  59 68 231  71 73 232  83 80 232  95 86 233 105  92 234 117  97 235 128 103 235 139 109 236 149 115 237 159 120 237 169 126 238 178 131 239 187 136 239 195 142 240 203 147 241 210 152 241 217 157 242 223 162 243 229 167 243 234 171 243 239 176 243 243 179 245 247 185 245 249 189 246 252 193 246 253 197 247 255 201 247 255 205 248 255 208 248 254 211 249 253 215 249 251 219 249 248 222 250 245 225 250 241 227 250 237 231 251 232 233 251 226 236 251 220 238 252 214 240 252 207 242 252 199 243 253 191 246 253 183 247 253 174 249 253 163 250 254 154 251 254 144 252 254 134 253 254 123 254 254 112 254 254 100 255 254  89 255 255  77 255 220   0 0 221   0 0 222   0 0 223   0 6 224   0  13 225   0  19 225   6  25 226  19 31 227  31 36 227  44 44 229  56 50 230  68 56 231  80 62 231  92 68 232 103  73 233 115  80 234 126  86 234 136  92 235 147  97 236 157 103 237 167 109 237 176 115 238 185 120 239 193 126 239 201 131 240 208 136 241 215 142 241 222 147 242 227 152 242 233 157 243 238 162 243 242 167 243 246 171 245 249 176 245 251 179 246 253 185 246 254 189 247 255 193 247 255 197 248 254 201 248 253 205 248 251 208 249 249 211 249 246 215 250 242 219 250 238 222 250 233 225 251 227 227 251 222 231 251 215 233 252 208 236 252 201 238 252 193 240 253 185 242 253 176 243 253 167 246 253 157 247 253 147 249 254 136 250 254 126 251 254 115 252 254 103 253 254  92 254 254  80 254 219   0 0 220   0 0 221   0 0 222   0 0 222   0 0 223   0 0 224   3 6 225  16 13 226  28 19 227  40 25 227  52 31 229  65 36 229  77 44 230  89 50 231 100  56 232 112  62 233 123  68 233 134  73 234 144  80 235 154  86 236 163  92 236 174  97 237 183 103 238 191 109 238 199 115 239 207 120 240 214 126 240 220 131 241 226 136 242 232 142 242 237 147 243 241 152 243 245 157 243 248 162 243 251 167 245 253 171 245 254 176 246 255 179 246 255 185 247 255 189 247 253 193 248 252 197 248 249 201 249 247 205 249 243 208 249 239 211 250 234 215 250 229 219 251 223 222 251 217 225 251 210 227 252 203 231 252 195 233 252 187 236 252 178 238 253 169 240 253 159 242 253 149 243 253 139 246 254 128 247 254 117 249 254 105 250 254  95 251 254  83 252 217   0 0 218   0 0 219   0 0 220   0 0 221   0 0 222   0 0 223   0 0 224  13   0 225  25   0 226  36   6 227  50 13 227  62 19 227  73 25 229  86 31 230  97 36 231 109  44 232 120  50 232 131  56 233 142  62 234 152  68 235 162  73 235 171  80 236 179  86 237 189  92 237 197  97 238 205 103 239 211 109 239 219 115 240 225 120 241 231 126 241 236 131 242 240 136 243 243 142 243 247 147 243 250 152 243 252 157 245 254 162 245 255 167 246 255 171 246 255 176 247 254 179 247 252 185 248 250 189 248 247 193 249 243 197 249 240 201 249 236 205 250 231 208 250 225 211 250 219 215 251 211 219 251 205 222 251 197 225 252 189 227 252 179 231 252 171 233 253 162 236 253 152 238 253 142 240 253 131 242 254 120 243 254 109 246 254  97 247 254  86 249 216   0 0 217   0 0 218   0 0 219   0 0 220   0 0 221   0 0 222   0 0 223   9 0 224  22   0 225  34   0 225  47   0 226  59   0 227  71   6 227  83 13 229  95 19 230 105  25 231 117  31 231 128  36 232 139  44 233 149  50 234 159  56 234 169  62 235 178  68 236 187  73 237 195  80 237 203  86 238 210  92 239 217  97 239 223 103 240 229 109 241 234 115 241 239 120 242 243 126 242 247 131 243 249 136 243 252 142 243 253 147 245 255 152 245 255 157 246 255 162 246 254 167 247 253 171 247 251 176 248 248 179 248 245 185 248 241 189 249 237 193 249 232 197 250 226 201 250 220 205 250 214 208 251 207 211 251 199 215 251 191 219 252 183 222 252 174 225 252 163 227 253 154 231 253 144 233 253 134 236 253 123 238 253 112 240 254 100 242 254  89 243 215   0 0 216   0 0 217   0 0 218   0 0 219   0 0 220   0 0 221   0 0 222   6 0 222  19   0 223  31   0 224  44   0 225  56   0 226  68   0 227  80   0 227  92   0 229 103   6 229 115  13 230 126  19 231 136  25 232 147  31 233 157  36 233 167  44 234 176  50 235 185  56 236 193  62 236 201  68 237 208  73 238 215  80 238 222  86 239 227  92 240 233  97 240 238 103 241 242 109 242 246 115 242 249 120 243 251 126 243 253 131 243 254 136 243 255 142 245 255 147 245 254 152 246 253 157 246 251 162 247 249 167 247 246 171 248 242 176 248 238 179 249 233 185 249 227 189 249 222 193 250 215 197 250 208 201 251 201 205 251 193 208 251 185 211 252 176 215 252 167 219 252 157 222 252 147 225 253 136 227 253 126 231 253 115 233 253 103 236 254  92 238 213   0 0 214   0 0 215   0 0 216   0 0 217   0 0 218   0 0 219   0 0 220   3 0 221  16   0 222  28   0 223  40   0 224  52   0 225  65   0 226  77   0 227  89   0 227 100   0 227 112   0 229 123   0 230 134   6 231 144  13 232 154  19 232 163  25 233 174  31 234 183  36 235 191  44 235 199  50 236 207  56 237 214  62 237 220  68 238 226  73 239 232  80 239 237  86 240 241  92 241 245  97 241 248 103 242 251 109 243 253 115 243 254 120 243 255 126 243 255 131 245 255 136 245 253 142 246 252 147 246 249 152 247 247 157 247 243 162 248 239 167 248 234 171 249 229 176 249 223 179 249 217 185 250 210 189 250 203 193 250 195 197 251 187 201 251 178 205 251 169 208 252 159 211 252 149 215 252 139 219 253 128 222 253 117 225 253 105 227 253  95 231 211   0 0 213   0 0 214   0 0 215   0 0 216   0 0 217   0 0 218   0 0 219   0 0 220  13   0 221  25   0 222  36   0 223  50   0 224  62   0 225  73   0 225  86   0 226  97   0 227 109   0 227 120   0 229 131   0 230 142   0 231 152   0 231 162   6 232 171  13 233 179  19 234 189  25 234 197  31 235 205  36 236 211  44 237 219  50 237 225  56 238 231  62 239 236  68 239 240  73 240 243  80 241 247  86 241 250  92 242 252  97 242 254 103 243 255 109 243 255 115 243 255 120 245 254 126 245 252 131 246 250 136 246 247 142 247 243 147 247 240 152 248 236 157 248 231 162 248 225 167 249 219 171 249 211 176 250 205 179 250 197 185 250 189 189 251 179 193 251 171 197 251 162 201 252 152 205 252 142 208 252 131 211 253 120 215 253 109 219 253  97 222 211   0 0 211   0 0 213   0 0 214   0 0 215   0 0 216   0 0 217   0 0 218   0 0 219   9 0 220  22   0 221  34   0 222  47   0 222  59   0 223  71   0 224  83   0 225  95   0 226 105   0 227 117   0 227 128   0 229 139   0 229 149   0 230 159   0 231 169   0 232 178   0 233 187   6 233 195  13 234 203  19 235 210  25 236 217  31 236 223  36 237 229  44 238 234  50 238 239  56 239 243  62 240 247  68 240 249  73 241 252  80 242 253  86 242 255  92 243 255  97 243 255 103 243 254 109 243 253 115 245 251 120 245 248 126 246 245 131 246 241 136 247 237 142 247 232 147 248 226 152 248 220 157 249 214 162 249 207 167 249 199 171 250 191 176 250 183 179 251 174 185 251 163 189 251 154 193 252 144 197 252 134 201 252 123 205 252 112 208 253 100 211 209   0 0 210   0 0 211   0 0 211   0 0 213   0 0 214   0 0 215   0 0 216   0 0 217   6 0 218  19   0 219  31   0 220  44   0 221  56   0 222  68   0 223  80   0 224  92   0 225 103   0 226 115   0 227 126   0 227 136   0 227 147   0 229 157   0 230 167   0 231 176   0 232 185   0 232 193   0 233 201   0 234 208   6 235 215  13 235 222  19 236 227  25 237 233  31 237 238  36 238 242  44 239 246  50 239 249  56 240 251  62 241 253  68 241 254  73 242 255  80 243 255  86 243 254  92 243 253  97 243 251 103 245 249 109 245 246 115 246 242 120 246 238 126 247 233 131 247 227 136 248 222 142 248 215 147 249 208 152 249 201 157 249 193 162 250 185 167 250 176 171 250 167 176 251 157 179 251 147 185 251 136 189 252 126 193 252 115 197 252 103 201 208   0 0 209   0 0 210   0 0 211   0 0 211   0 0 213   0 0 214   0 0 215   0 0 216   3 0 217  16   0 218  28   0 219  40   0 220  52   0 221  65   0 222  77   0 223  89   0 224 100   0 225 112   0 225 123   0 226 134   0 227 144   0 227 154   0 229 163   0 230 174   0 231 183   0 231 191   0 232 199   0 233 207   0 234 214   0 234 220   0 235 226   6 236 232  13 237 237  19 237 241  25 238 245  31 239 248  36 239 251  44 240 253  50 241 254  56 241 255  62 242 255  68 242 255  73 243 253  80 243 252  86 243 249  92 245 247  97 245 243 103 246 239 109 246 234 115 247 229 120 247 223 126 248 217 131 248 210 136 248 203 142 249 195 147 249 187 152 250 178 157 250 169 162 250 159 167 251 149 171 251 139 176 251 128 179 252 117 185 252 105 189 206   0 0 207   0 0 208   0 0 210   0 0 211   0 0 211   0 0 213   0 0 214   0 0 215   0 0 216  13   0 217  25   0 218  36   0 219  50   0 220  62   0 221  73   0 222  86   0 222  97   0 223 109   0 224 120   0 225 131   0 226 142   0 227 152   0 227 162   0 229 171   0 229 179   0 230 189   0 231 197   0 232 205   0 233 211   0 233 219   0 234 225   0 235 231   0 236 236   0 236 240   6 237 243  13 238 247  19 238 250  25 239 252  31 240 254  36 240 255  44 241 255  50 242 255  56 242 254  62 243 252  68 243 250  73 243 247  80 243 243  86 245 240  92 245 236  97 246 231 103 246 225 109 247 219 115 247 211 120 248 205 126 248 197 131 249 189 136 249 179 142 249 171 147 250 162 152 250 152 157 251 142 162 251 131 167 251 120 171 252 109 176 205   0 0 206   0 0 207   0 0 208   0 0 209   0 0 210   0 0 211   0 0 211   0 0 213   0 0 214   9 0 215  22   0 216  34   0 217  47   0 218  59   0 219  71   0 220  83   0 221  95   0 222 105   0 223 117   0 224 128   0 225 139   0 226 149   0 227 159   0 227 169   0 227 178   0 229 187   0 230 195   0 231 203   0 232 210   0 232 217   0 233 223   0 234 229   0 235 234   0 235 239   0 236 243   0 237 247   0 237 249   6 238 252  13 239 253  19 239 255  25 240 255  31 241 255  36 241 254  44 242 253  50 243 251  56 243 248  62 243 245  68 243 241  73 245 237  80 245 232  86 246 226  92 246 220  97 247 214 103 247 207 109 248 199 115 248 191 120 249 183 126 249 174 131 249 163 136 250 154 142 250 144 147 250 134 152 251 123 157 251 112 162 203   0 0 204   0 0 206   0 0 207   0 0 208   0 0 209   0 0 210   0 0 211   0 0 211   0 0 213   6 0 214  19   0 215  31   0 216  44   0 217  56   0 218  68   0 219  80   0 220  92   0 221 103   0 222 115   0 223 126   0 224 136   0 225 147   0 225 157   0 226 167   0 227 176   0 227 185   0 229 193   0 230 201   0 231 208   0 231 215   0 232 222   0 233 227   0 234 233   0 234 238   0 235 242   0 236 246   0 237 249   0 237 251   0 238 253   0 239 254   6 239 255  13 240 255  19 241 254  25 241 253  31 242 251  36 242 249  44 243 246  50 243 242  56 243 238  62 245 233  68 245 227  73 246 222  80 246 215  86 247 208  92 247 201  97 248 193 103 248 185 109 248 176 115 249 167 120 249 157 126 250 147 131 250 136 136 250 126 142 251 115 147 202   0 0 203   0 0 204   0 0 205   0 0 206   0 0 207   0 0 208   0 0 210   0 0 211   0 0 211   3 0 213  16   0 214  28   0 215  40   0 216  52   0 217  65   0 218  77   0 219  89   0 220 100   0 221 112   0 222 123   0 222 134   0 223 144   0 224 154   0 225 163   0 226 174   0 227 183   0 227 191   0 229 199   0 229 207   0 230 214   0 231 220   0 232 226   0 233 232   0 233 237   0 234 241   0 235 245   0 236 248   0 236 251   0 237 253   0 238 254   0 238 255   0 239 255   0 240 255   6 240 253  13 241 252  19 242 249  25 242 247  31 243 243  36 243 239  44 243 234  50 243 229  56 245 223  62 245 217  68 246 210  73 246 203  80 247 195  86 247 187  92 248 178  97 248 169 103 249 159 109 249 149 115 249 139 120 250 128 126 250 117 131 200   0 0 201   0 0 203   0 0 204   0 0 205   0 0 206   0 0 207   0 0 208   0 0 209   0 0 210   0 0 211  13   0 211  25   0 213  36   0 214  50   0 215  62   0 216  73   0 217  86   0 218  97   0 219 109   0 220 120   0 221 131   0 222 142   0 223 152   0 224 162   0 225 171   0 226 179   0 227 189   0 227 197   0 227 205   0 229 211   0 230 219   0 231 225   0 232 231   0 232 236   0 233 240   0 234 243   0 235 247   0 235 250   0 236 252   0 237 254   0 237 255   0 238 255   0 239 255   0 239 254   0 240 252   0 241 250   6 241 247  13 242 243  19 243 240  25 243 236  31 243 231  36 243 225  44 245 219  50 245 211  56 246 205  62 246 197  68 247 189  73 247 179  80 248 171  86 248 162  92 249 152  97 249 142 103 249 131 109 250 120 115 199   0 0 200   0 0 201   0 0 202   0 0 203   0 0 204   0 0 206   0 0 207   0 0 208   0 0 209   0 0 210   9 0 211  22   0 211  34   0 213  47   0 214  59   0 215  71   0 216  83   0 217  95   0 218 105   0 219 117   0 220 128   0 221 139   0 222 149   0 223 159   0 224 169   0 225 178   0 225 187   0 226 195   0 227 203   0 227 210   0 229 217   0 230 223   0 231 229   0 231 234   0 232 239   0 233 243   0 234 247   0 234 249   0 235 252   0 236 253   0 237 255   0 237 255   0 238 255   0 239 254   0 239 253   0 240 251   0 241 248   0 241 245   0 242 241   6 242 237  13 243 232  19 243 226  25 243 220  31 245 214  36 245 207  44 246 199  50 246 191  56 247 183  62 247 174  68 248 163  73 248 154  80 248 144  86 249 134  92 249 123  97 197   0 0 198   0 0 199   0 0 201   0 0 202   0 0 203   0 0 204   0 0 205   0 0 206   0 0 207   0 0 208   6 0 210  19   0 211  31   0 211  44   0 213  56   0 214  68   0 215  80   0 216  92   0 217 103   0 218 115   0 219 126   0 220 136   0 221 147   0 222 157   0 222 167   0 223 176   0 224 185   0 225 193   0 226 201   0 227 208   0 227 215   0 229 222   0 229 227   0 230 233   0 231 238   0 232 242   0 233 246   0 233 249   0 234 251   0 235 253   0 236 254   0 236 255   0 237 255   0 238 254   0 238 253   0 239 251   0 240 249   0 240 246   0 241 242   0 242 238   0 242 233   0 243 227   6 243 222  13 243 215  19 243 208  25 245 201  31 245 193  36 246 185  44 246 176  50 247 167  56 247 157  62 248 147  68 248 136  73 249 126  80 195   0 0 197   0 0 198   0 0 199   0 0 200   0 0 201   0 0 203   0 0 204   0 0 205   0 0 206   0 0 207   3 0 208  16   0 209  28   0 210  40   0 211  52   0 211  65   0 213  77   0 214  89   0 215 100   0 216 112   0 217 123   0 218 134   0 219 144   0 220 154   0 221 163   0 222 174   0 223 183   0 224 191   0 225 199   0 226 207   0 227 214   0 227 220   0 227 226   0 229 232   0 230 237   0 231 241   0 232 245   0 232 248   0 233 251   0 234 253   0 235 254   0 235 255   0 236 255   0 237 255   0 237 253   0 238 252   0 239 249   0 239 247   0 240 243   0 241 239   0 241 234   0 242 229   0 243 223   0 243 217   0 243 210   6 243 203  13 245 195  19 245 187  25 246 178  31 246 169  36 247 159  44 247 149  50 248 139  56 248 128  62 194   0 0 195   0 0 195   0 0 198   0 0 199   0 0 200   0 0 201   0 0 202   0 0 203   0 0 204   0 0 206   0 0 207  13   0 208  25   0 209  36   0 210  50   0 211  62   0 211  73   0 213  86   0 214  97   0 215 109   0 216 120   0 217 131   0 218 142   0 219 152   0 220 162   0 221 171   0 222 179   0 223 189   0 224 197   0 225 205   0 225 211   0 226 219   0 227 225   0 227 231   0 229 236   0 230 240   0 231 243   0 231 247   0 232 250   0 233 252   0 234 254   0 234 255   0 235 255   0 236 255   0 237 254   0 237 252   0 238 250   0 239 247   0 239 243   0 240 240   0 241 236   0 241 231   0 242 225   0 242 219   0 243 211   0 243 205   0 243 197   0 245 189   6 245 179  13 246 171  19 246 162  25 247 152  31 247 142  36 248 131  44 192   0 0 193   0 0 195   0 0 195   0 0 197   0 0 198   0 0 199   0 0 201   0 0 202   0 0 203   0 0 204   0 0 205   9 0 206  22   0 207  34   0 208  47   0 210  59   0 211  71   0 211  83   0 213  95   0 214 105   0 215 117   0 216 128   0 217 139   0 218 149   0 219 159   0 220 169   0 221 178   0 222 187   0 222 195   0 223 203   0 224 210   0 225 217   0 226 223   0 227 229   0 227 234   0 229 239   0 229 243   0 230 247   0 231 249   0 232 252   0 233 253   0 233 255   0 234 255   0 235 255   0 236 254   0 236 253   0 237 251   0 238 248   0 238 245   0 239 241   0 240 237   0 240 232   0 241 226   0 242 220   0 242 214   0 243 207   0 243 199   0 243 191   0 243 183   0 245 174   0 245 163   6 246 154  13 246 144  19 247 134  25 191   0 0 192   0 0 193   0 0 194   0 0 195   0 0 197   0 0 198   0 0 199   0 0 200   0 0 201   0 0 203   0 0 204   6 0 205  19   0 206  31   0 207  44   0 208  56   0 209  68   0 210  80   0 211  92   0 211 103   0 213 115   0 214 126   0 215 136   0 216 147   0 217 157   0 218 167   0 219 176   0 220 185   0 221 193   0 222 201   0 223 208   0 224 215   0 225 222   0 226 227   0 227 233   0 227 238   0 227 242   0 229 246   0 230 249   0 231 251   0 232 253   0 232 254   0 233 255   0 234 255   0 235 254   0 235 253   0 236 251   0 237 249   0 237 246   0 238 242   0 239 238   0 239 233   0 240 227   0 241 222   0 241 215   0 242 208   0 243 201   0 243 193   0 243 185   0 243 176   0 245 167   0 245 157   0 246 147   0 246 136   6 189   0 0 190   0 0 191   0 0 193   0 0 194   0 0 195   0 0 195   0 0 198   0 0 199   0 0 200   0 0 201   0 0 202   3 0 203  16   0 204  28   0 206  40   0 207  52   0 208  65   0 209  77   0 210  89   0 211 100   0 211 112   0 213 123   0 214 134   0 215 144   0 216 154   0 217 163   0 218 174   0 219 183   0 220 191   0 221 199   0 222 207   0 223 214   0 224 220   0 225 226   0 225 232   0 226 237   0 227 241   0 227 245   0 229 248   0 230 251   0 231 253   0 231 254   0 232 255   0 233 255   0 234 255   0 234 253   0 235 252   0 236 249   0 237 247   0 237 243   0 238 239   0 239 234   0 239 229   0 240 223   0 241 217   0 241 210   0 242 203   0 242 195   0 243 187   0 243 178   0 243 169   0 245 159   0 245 149   0 246 139   0 187   0 0 189   0 0 190   0 0 191   0 0 192   0 0 193   0 0 195   0 0 195   0 0 197   0 0 198   0 0 199   0 0 201   0 0 202  13   0 203  25   0 204  36   0 205  50   0 206  62   0 207  73   0 208  86   0 210  97   0 211 109   0 211 120   0 213 131   0 214 142   0 215 152   0 216 162   0 217 171   0 218 179   0 219 189   0 220 197   0 221 205   0 222 211   0 222 219   0 223 225   0 224 231   0 225 236   0 226 240   0 227 243   0 227 247   0 229 250   0 229 252   0 230 254   0 231 255   0 232 255   0 233 255   0 233 254   0 234 252   0 235 250   0 236 247   0 236 243   0 237 240   0 238 236   0 238 231   0 239 225   0 240 219   0 240 211   0 241 205   0 242 197   0 242 189   0 243 179   0 243 171   0 243 162   0 243 152   0 245 142   0 186   0 0 187   0 0 188   0 0 189   0 0 191   0 0 192   0 0 193   0 0 194   0 0 195   0 0 197   0 0 198   0 0 199   0 0 200   9 0 201  22   0 203  34   0 204  47   0 205  59   0 206  71   0 207  83   0 208  95   0 209 105   0 210 117   0 211 128   0 211 139   0 213 149   0 214 159   0 215 169   0 216 178   0 217 187   0 218 195   0 219 203   0 220 210   0 221 217   0 222 223   0 223 229   0 224 234   0 225 239   0 226 243   0 227 247   0 227 249   0 227 252   0 229 253   0 230 255   0 231 255   0 232 255   0 232 254   0 233 253   0 234 251   0 235 248   0 235 245   0 236 241   0 237 237   0 237 232   0 238 226   0 239 220   0 239 214   0 240 207   0 241 199   0 241 191   0 242 183   0 243 174   0 243 163   0 243 154   0 243 144   0 184   0 0 185   0 0 186   0 0 188   0 0 189   0 0 190   0 0 191   0 0 193   0 0 194   0 0 195   0 0 195   0 0 198   0 0 199   6 0 200  19   0 201  31   0 202  44   0 203  56   0 204  68   0 206  80   0 207  92   0 208 103   0 209 115   0 210 126   0 211 136   0 211 147   0 213 157   0 214 167   0 215 176   0 216 185   0 217 193   0 218 201   0 219 208   0 220 215   0 221 222   0 222 227   0 223 233   0 224 238   0 225 242   0 225 246   0 226 249   0 227 251   0 227 253   0 229 254   0 230 255   0 231 255   0 231 254   0 232 253   0 233 251   0 234 249   0 234 246   0 235 242   0 236 238   0 237 233   0 237 227   0 238 222   0 239 215   0 239 208   0 240 201   0 241 193   0 241 185   0 242 176   0 242 167   0 243 157   0 243 147   0 182   0 0 183   0 0 185   0 0 186   0 0 187   0 0 189   0 0 190   0 0 191   0 0 192   0 0 193   0 0 195   0 0 195   0 0 197   3 0 198  16   0 199  28   0 201  40   0 202  52   0 203  65   0 204  77   0 205  89   0 206 100   0 207 112   0 208 123   0 210 134   0 211 144   0 211 154   0 213 163   0 214 174   0 215 183   0 216 191   0 217 199   0 218 207   0 219 214   0 220 220   0 221 226   0 222 232   0 222 237   0 223 241   0 224 245   0 225 248   0 226 251   0 227 253   0 227 254   0 229 255   0 229 255   0 230 255   0 231 253   0 232 252   0 233 249   0 233 247   0 234 243   0 235 239   0 236 234   0 236 229   0 237 223   0 238 217   0 238 210   0 239 203   0 240 195   0 240 187   0 241 178   0 242 169   0 242 159   0 243 149   0 179   0 0 182   0 0 183   0 0 184   0 0 186   0 0 187   0 0 188   0 0 189   0 0 191   0 0 192   0 0 193   0 0 194   0 0 195   0 0 197  13   0 198  25   0 199  36   0 200  50   0 201  62   0 203  73   0 204  86   0 205  97   0 206 109   0 207 120   0 208 131   0 209 142   0 210 152   0 211 162   0 211 171   0 213 179   0 214 189   0 215 197   0 216 205   0 217 211   0 218 219   0 219 225   0 220 231   0 221 236   0 222 240   0 223 243   0 224 247   0 225 250   0 226 252   0 227 254   0 227 255   0 227 255   0 229 255   0 230 254   0 231 252   0 232 250   0 232 247   0 233 243   0 234 240   0 235 236   0 235 231   0 236 225   0 237 219   0 237 211   0 238 205   0 239 197   0 239 189   0 240 179   0 241 171   0 241 162   0 242 152   0 179   0 0 179   0 0 181   0 0 183   0 0 184   0 0 185   0 0 186   0 0 188   0 0 189   0 0 190   0 0 191   0 0 193   0 0 194   0 0 195   9 0 195  22   0 198  34   0 199  47   0 200  59   0 201  71   0 202  83   0 203  95   0 204 105   0 206 117   0 207 128   0 208 139   0 209 149   0 210 159   0 211 169   0 211 178   0 213 187   0 214 195   0 215 203   0 216 210   0 217 217   0 218 223   0 219 229   0 220 234   0 221 239   0 222 243   0 223 247   0 224 249   0 225 252   0 225 253   0 226 255   0 227 255   0 227 255   0 229 254   0 230 253   0 231 251   0 231 248   0 232 245   0 233 241   0 234 237   0 234 232   0 235 226   0 236 220   0 237 214   0 237 207   0 238 199   0 239 191   0 239 183   0 240 174   0 241 163   0 241 154   0 177   0 0 178   0 0 179   0 0 181   0 0 182   0 0 183   0 0 185   0 0 186   0 0 187   0 0 189   0 0 190   0 0 191   0 0 192   0 0 193   6 0 195  19   0 195  31   0 197  44   0 198  56   0 199  68   0 201  80   0 202  92   0 203 103   0 204 115   0 205 126   0 206 136   0 207 147   0 208 157   0 210 167   0 211 176   0 211 185   0 213 193   0 214 201   0 215 208   0 216 215   0 217 222   0 218 227   0 219 233   0 220 238   0 221 242   0 222 246   0 222 249   0 223 251   0 224 253   0 225 254   0 226 255   0 227 255   0 227 254   0 229 253   0 229 251   0 230 249   0 231 246   0 232 242   0 233 238   0 233 233   0 234 227   0 235 222   0 236 215   0 236 208   0 237 201   0 238 193   0 238 185   0 239 176   0 240 167   0 240 157   0 175   0 0 176   0 0 178   0 0 179   0 0 179   0 0 182   0 0 183   0 0 184   0 0 186   0 0 187   0 0 188   0 0 189   0 0 191   0 0 192   3 0 193  16   0 194  28   0 195  40   0 197  52   0 198  65   0 199  77   0 200  89   0 201 100   0 203 112   0 204 123   0 205 134   0 206 144   0 207 154   0 208 163   0 209 174   0 210 183   0 211 191   0 211 199   0 213 207   0 214 214   0 215 220   0 216 226   0 217 232   0 218 237   0 219 241   0 220 245   0 221 248   0 222 251   0 223 253   0 224 254   0 225 255   0 226 255   0 227 255   0 227 253   0 227 252   0 229 249   0 230 247   0 231 243   0 232 239   0 232 234   0 233 229   0 234 223   0 235 217   0 235 210   0 236 203   0 237 195   0 237 187   0 238 178   0 239 169   0 239 159   0 173   0 0 174   0 0 176   0 0 177   0 0 179   0 0 179   0 0 181   0 0 183   0 0 184   0 0 185   0 0 186   0 0 188   0 0 189   0 0 190   0 0 191  13   0 193  25   0 194  36   0 195  50   0 195  62   0 198  73   0 199  86   0 200  97   0 201 109   0 202 120   0 203 131   0 204 142   0 206 152   0 207 162   0 208 171   0 209 179   0 210 189   0 211 197   0 211 205   0 213 211   0 214 219   0 215 225   0 216 231   0 217 236   0 218 240   0 219 243   0 220 247   0 221 250   0 222 252   0 223 254   0 224 255   0 225 255   0 225 255   0 226 254   0 227 252   0 227 250   0 229 247   0 230 243   0 231 240   0 231 236   0 232 231   0 233 225   0 234 219   0 234 211   0 235 205   0 236 197   0 237 189   0 237 179   0 238 171   0 239 162   0 171   0 0 173   0 0 174   0 0 175   0 0 177   0 0 178   0 0 179   0 0 181   0 0 182   0 0 183   0 0 185   0 0 186   0 0 187   0 0 189   0 0 190   9 0 191  22   0 192  34   0 193  47   0 195  59   0 195  71   0 197  83   0 198  95   0 199 105   0 201 117   0 202 128   0 203 139   0 204 149   0 205 159   0 206 169   0 207 178   0 208 187   0 210 195   0 211 203   0 211 210   0 213 217   0 214 223   0 215 229   0 216 234   0 217 239   0 218 243   0 219 247   0 220 249   0 221 252   0 222 253   0 222 255   0 223 255   0 224 255   0 225 254   0 226 253   0 227 251   0 227 248   0 229 245   0 229 241   0 230 237   0 231 232   0 232 226   0 233 220   0 233 214   0 234 207   0 235 199   0 236 191   0 236 183   0 237 174   0 238 163   0 169   0 0 171   0 0 172   0 0 174   0 0 175   0 0 176   0 0 178   0 0 179   0 0 179   0 0 182   0 0 183   0 0 184   0 0 186   0 0 187   0 0 188   6 0 189  19   0 191  31   0 192  44   0 193  56   0 194  68   0 195  80   0 197  92   0 198 103   0 199 115   0 200 126   0 201 136   0 203 147   0 204 157   0 205 167   0 206 176   0 207 185   0 208 193   0 209 201   0 210 208   0 211 215   0 211 222   0 213 227   0 214 233   0 215 238   0 216 242   0 217 246   0 218 249   0 219 251   0 220 253   0 221 254   0 222 255   0 223 255   0 224 254   0 225 253   0 226 251   0 227 249   0 227 246   0 227 242   0 229 238   0 230 233   0 231 227   0 232 222   0 232 215   0 233 208   0 234 201   0 235 193   0 235 185   0 236 176   0 237 167   0 168   0 0 169   0 0 170   0 0 172   0 0 173   0 0 174   0 0 176   0 0 177   0 0 179   0 0 179   0 0 181   0 0 183   0 0 184   0 0 185   0 0 186   3 0 188  16   0 189  28   0 190  40   0 191  52   0 193  65   0 194  77   0 195  89   0 195 100   0 198 112   0 199 123   0 200 134   0 201 144   0 202 154   0 203 163   0 204 174   0 206 183   0 207 191   0 208 199   0 209 207   0 210 214   0 211 220   0 211 226   0 213 232   0 214 237   0 215 241   0 216 245   0 217 248   0 218 251   0 219 253   0 220 254   0 221 255   0 222 255   0 223 255   0 224 253   0 225 252   0 225 249   0 226 247   0 227 243   0 227 239   0 229 234   0 230 229   0 231 223   0 231 217   0 232 210   0 233 203   0 234 195   0 234 187   0 235 178   0 236 169   0 166   0 0 167   0 0 168   0 0 170   0 0 171   0 0 173   0 0 174   0 0 175   0 0 177   0 0 178   0 0 179   0 0 181   0 0 182   0 0 183   0 0 185   0 0 186  13   0 187  25   0 189  36   0 190  50   0 191  62   0 192  73   0 193  86   0 195  97   0 195 109   0 197 120   0 198 131   0 199 142   0 201 152   0 202 162   0 203 171   0 204 179   0 205 189   0 206 197   0 207 205   0 208 211   0 210 219   0 211 225   0 211 231   0 213 236   0 214 240   0 215 243   0 216 247   0 217 250   0 218 252   0 219 254   0 220 255   0 221 255   0 222 255   0 222 254   0 223 252   0 224 250   0 225 247   0 226 243   0 227 240   0 227 236   0 229 231   0 229 225   0 230 219   0 231 211   0 232 205   0 233 197   0 233 189   0 234 179   0 235 171   0 163   0 0 165   0 0 167   0 0 168   0 0 169   0 0 171   0 0 172   0 0 174   0 0 175   0 0 176   0 0 178   0 0 179   0 0 179   0 0 182   0 0 183   0 0 184   9 0 186  22   0 187  34   0 188  47   0 189  59   0 191  71   0 192  83   0 193  95   0 194 105   0 195 117   0 197 128   0 198 139   0 199 149   0 200 159   0 201 169   0 203 178   0 204 187   0 205 195   0 206 203   0 207 210   0 208 217   0 209 223   0 210 229   0 211 234   0 211 239   0 213 243   0 214 247   0 215 249   0 216 252   0 217 253   0 218 255   0 219 255   0 220 255   0 221 254   0 222 253   0 223 251   0 224 248   0 225 245   0 226 241   0 227 237   0 227 232   0 227 226   0 229 220   0 230 214   0 231 207   0 232 199   0 232 191   0 233 183   0 234 174   0 162   0 0 163   0 0 165   0 0 166   0 0 168   0 0 169   0 0 170   0 0 172   0 0 173   0 0 174   0 0 176   0 0 177   0 0 179   0 0 179   0 0 181   0 0 183   6 0 184  19   0 185  31   0 186  44   0 188  56   0 189  68   0 190  80   0 191  92   0 193 103   0 194 115   0 195 126   0 195 136   0 198 147   0 199 157   0 200 167   0 201 176   0 202 185   0 203 193   0 204 201   0 206 208   0 207 215   0 208 222   0 209 227   0 210 233   0 211 238   0 211 242   0 213 246   0 214 249   0 215 251   0 216 253   0 217 254   0 218 255   0 219 255   0 220 254   0 221 253   0 222 251   0 223 249   0 224 246   0 225 242   0 225 238   0 226 233   0 227 227   0 227 222   0 229 215   0 230 208   0 231 201   0 231 193   0 232 185   0 233 176   0 160   0 0 161   0 0 163   0 0 163   0 0 166   0 0 167   0 0 168   0 0 170   0 0 171   0 0 173   0 0 174   0 0 175   0 0 177   0 0 178   0 0 179   0 0 181   3 0 182  16   0 183  28   0 185  40   0 186  52   0 187  65   0 189  77   0 190  89   0 191 100   0 192 112   0 193 123   0 195 134   0 195 144   0 197 154   0 198 163   0 199 174   0 201 183   0 202 191   0 203 199   0 204 207   0 205 214   0 206 220   0 207 226   0 208 232   0 210 237   0 211 241   0 211 245   0 213 248   0 214 251   0 215 253   0 216 254   0 217 255   0 218 255   0 219 255   0 220 253   0 221 252   0 222 249   0 222 247   0 223 243   0 224 239   0 225 234   0 226 229   0 227 223   0 227 217   0 229 210   0 229 203   0 230 195   0 231 187   0 232 178   0 158   0 0 159   0 0 161   0 0 162   0 0 163   0 0 165   0 0 167   0 0 168   0 0 169   0 0 171   0 0 172   0 0 174   0 0 175   0 0 176   0 0 178   0 0 179   0 0 179  13   0 182  25   0 183  36   0 184  50   0 186  62   0 187  73   0 188  86   0 189  97   0 191 109   0 192 120   0 193 131   0 194 142   0 195 152   0 197 162   0 198 171   0 199 179   0 200 189   0 201 197   0 203 205   0 204 211   0 205 219   0 206 225   0 207 231   0 208 236   0 209 240   0 210 243   0 211 247   0 211 250   0 213 252   0 214 254   0 215 255   0 216 255   0 217 255   0 218 254   0 219 252   0 220 250   0 221 247   0 222 243   0 223 240   0 224 236   0 225 231   0 226 225   0 227 219   0 227 211   0 227 205   0 229 197   0 230 189   0 231 179   0 156   0 0 157   0 0 159   0 0 160   0 0 162   0 0 163   0 0 165   0 0 166   0 0 168   0 0 169   0 0 170   0 0 172   0 0 173   0 0 174   0 0 176   0 0 177   0 0 179   9 0 179  22   0 181  34   0 183  47   0 184  59   0 185  71   0 186  83   0 188  95   0 189 105   0 190 117   0 191 128   0 193 139   0 194 149   0 195 159   0 195 169   0 198 178   0 199 187   0 200 195   0 201 203   0 202 210   0 203 217   0 204 223   0 206 229   0 207 234   0 208 239   0 209 243   0 210 247   0 211 249   0 211 252   0 213 253   0 214 255   0 215 255   0 216 255   0 217 254   0 218 253   0 219 251   0 220 248   0 221 245   0 222 241   0 223 237   0 224 232   0 225 226   0 225 220   0 226 214   0 227 207   0 227 199   0 229 191   0 230 183   0 154   0 0 155   0 0 157   0 0 158   0 0 160   0 0 161   0 0 163   0 0 163   0 0 166   0 0 167   0 0 168   0 0 170   0 0 171   0 0 173   0 0 174   0 0 175   0 0 177   6 0 178  19   0 179  31   0 181  44   0 182  56   0 183  68   0 185  80   0 186  92   0 187 103   0 189 115   0 190 126   0 191 136   0 192 147   0 193 157   0 195 167   0 195 176   0 197 185   0 198 193   0 199 201   0 201 208   0 202 215   0 203 222   0 204 227   0 205 233   0 206 238   0 207 242   0 208 246   0 210 249   0 211 251   0 211 253   0 213 254   0 214 255   0 215 255   0 216 254   0 217 253   0 218 251   0 219 249   0 220 246   0 221 242   0 222 238   0 222 233   0 223 227   0 224 222   0 225 215   0 226 208   0 227 201   0 227 193   0 229 185   0 152   0 0 153   0 0 155   0 0 156   0 0 158   0 0 159   0 0 161   0 0 162   0 0 163   0 0 165   0 0 167   0 0 168   0 0 169   0 0 171   0 0 172   0 0 174   0 0 175   3 0 176  16   0 178  28   0 179  40   0 179  52   0 182  65   0 183  77   0 184  89   0 186 100   0 187 112   0 188 123   0 189 134   0 191 144   0 192 154   0 193 163   0 194 174   0 195 183   0 197 191   0 198 199   0 199 207   0 200 214   0 201 220   0 203 226   0 204 232   0 205 237   0 206 241   0 207 245   0 208 248   0 209 251   0 210 253   0 211 254   0 211 255   0 213 255   0 214 255   0 215 253   0 216 252   0 217 249   0 218 247   0 219 243   0 220 239   0 221 234   0 222 229   0 223 223   0 224 217   0 225 210   0 226 203   0 227 195   0 227 187   0 