P2 64 32 255 131 129 127 131 127 131 130 126 126 126 128 127 126 127 127
127 127 128 129 126 128 123 117 121 125 123 124 120 123 120 121 124 125
127 126 124 126 124 130 127 118 124 121 119 126 128 128 125 124 120 121
128 126 127 123 121 119 120 120 120 121 121 121 125 129 126 129 133 126
134 129 125 125 118 121 129 128 130 126 126 128 126 123 128 124 117 120
119 118 119 119 117 118 118 125 126 124 125 127 126 124 123 135 136 130
124 120 116 127 142 130 120 120 121 125 131 128 127 126 125 126 120 121
121 123 120 121 125 125 125 131 128 121 131 126 124 131 129 113 127 127
126 123 125 126 126 135 128 121 130 139 120 117 129 117 115 117 118 128
129 126 125 120 123 117 121 125 128 130 111 123 103 99 97 100 104 116 126
124 124 126 127 128 126 127 126 127 123 124 125 125 124 121 125 125 121
126 140 130 116 130 134 120 131 128 128 126 123 118 125 137 135 128 125
116 100 113 130 116 113 115 113 121 123 121 124 123 121 117 116 111 109
86 64 51 55 52 52 64 91 102 127 117 112 123 128 130 124 124 128 127 125
125 124 123 124 131 127 130 125 128 139 139 126 129 112 119 111 119 124
127 130 131 127 111 101 88 81 75 73 83 87 100 105 113 117 117 120 121 124
124 119 128 109 104 86 67 67 63 55 36 31 36 56 84 101 113 118 124 127 126
124 123 127 120 123 124 123 125 125 134 123 113 109 124 107 92 79 56 51
73 89 100 111 117 133 131 120 83 36 18 17 19 26 35 50 81 97 115 134 121
120 124 117 113 117 113 93 73 59 79 88 91 88 76 59 40 42 58 84 105 136
134 123 124 120 121 124 126 120 123 124 119 123 65 77 89 100 109 85 56
35 18 23 32 48 59 87 112 111 100 80 47 32 35 26 29 27 28 40 64 86 103 117
117 124 126 117 119 105 102 69 35 75 94 103 107 115 105 91 55 36 47 70
94 117 134 124 121 127 125 123 124 127 126 123 119 123 34 48 69 84 60 38
29 40 52 38 32 21 36 56 77 84 62 40 56 85 80 83 59 39 25 35 51 72 92 101
118 126 121 118 113 113 84 29 47 86 100 113 136 138 129 125 81 35 40 52
78 97 118 123 121 128 124 124 123 125 126 141 127 125 55 48 51 52 56 73
88 97 84 65 48 36 29 29 31 52 40 83 109 113 119 103 85 70 32 32 51 67 94
111 121 117 116 119 112 100 64 29 65 97 113 110 156 131 126 131 108 51
46 38 73 117 113 117 125 121 119 126 118 124 127 125 129 123 36 48 47 56
85 100 110 127 112 99 83 58 38 27 47 63 94 105 118 123 121 115 108 97 48
21 42 67 87 117 123 117 120 130 110 75 48 42 73 117 118 116 113 105 105
117 78 55 36 42 86 126 120 118 123 124 123 123 126 123 118 101 126 134
28 39 63 87 110 113 115 129 129 117 110 79 23 36 56 84 117 127 130 125
133 131 125 102 59 24 36 64 88 118 123 118 115 117 97 65 38 35 63 81 93
89 83 76 76 55 43 44 47 60 101 111 119 121 120 124 127 118 125 117 121
126 117 127 18 36 76 99 117 126 123 120 120 116 108 80 31 36 52 99 116
129 134 121 127 140 115 102 73 27 32 43 87 120 120 118 117 112 89 62 31
31 42 32 21 18 32 38 40 40 55 76 79 95 105 117 117 117 128 120 126 123
119 124 120 118 124 116 16 36 85 104 113 123 124 121 124 119 110 85 32
35 50 85 116 124 118 127 123 124 115 105 79 31 25 46 81 113 119 116 117
121 85 47 32 32 51 60 43 59 81 88 93 97 103 110 115 117 126 121 120 121
124 125 123 120 123 121 119 119 123 117 17 32 86 116 118 117 127 129 129
144 124 86 21 27 44 84 117 130 121 125 119 119 126 118 81 36 25 46 79 100
115 121 121 131 73 29 28 35 73 96 115 127 129 130 126 118 138 143 133 124
120 120 121 124 125 127 125 123 123 123 120 121 120 119 14 32 81 117 135
124 131 134 126 125 126 84 29 28 47 84 134 131 121 119 119 119 135 117
76 47 29 42 84 112 147 113 119 127 69 40 17 39 78 117 129 135 131 134 139
126 126 127 126 120 115 118 123 121 121 124 125 126 130 120 113 117 118
123 10 29 85 119 139 121 124 126 126 113 111 85 26 26 40 84 126 128 120
117 121 119 142 111 69 48 35 42 80 121 125 117 127 121 68 51 10 36 94 117
113 113 121 121 125 125 119 123 124 118 120 119 119 120 126 129 128 128
127 119 117 118 119 123 14 25 85 127 131 125 127 121 120 117 121 85 29
23 34 81 126 126 123 120 123 117 144 109 70 38 27 42 88 103 113 123 123
109 75 50 10 39 99 105 111 115 113 121 121 125 123 118 119 121 120 119
119 120 124 124 126 128 123 121 124 120 120 118 21 25 84 131 117 120 124
124 119 121 123 88 39 6 40 78 117 124 119 119 124 118 139 105 72 32 27
40 79 103 117 125 123 102 81 48 14 44 75 93 113 121 118 123 120 118 120
117 130 126 123 123 123 121 123 124 127 131 120 120 124 118 121 117 24
24 78 125 113 120 124 125 124 124 118 88 47 12 43 87 112 125 123 121 124
123 131 110 78 31 12 46 73 105 124 124 121 107 83 48 14 34 59 83 115 123
113 115 117 115 116 117 131 124 117 117 117 117 121 125 126 124 116 120
125 120 123 119 27 21 80 126 120 125 126 116 124 131 121 89 52 14 58 95
107 129 131 127 123 123 130 127 86 25 14 52 85 111 113 113 121 119 94 56
8 19 51 69 89 105 107 109 109 111 115 113 109 99 104 115 124 121 119 120
121 120 119 124 123 120 123 123 28 32 73 117 128 120 126 125 121 130 128
86 48 44 67 83 97 123 142 125 116 120 128 129 94 31 10 46 89 111 113 120
124 120 110 72 16 25 42 55 65 85 105 108 120 119 126 95 86 81 87 113 143
119 124 123 119 124 119 119 120 121 125 121 32 36 85 109 125 119 123 126
125 133 117 89 48 29 42 77 115 121 121 126 118 123 121 118 81 31 17 36
91 109 113 118 126 129 126 94 51 39 36 32 51 65 78 89 103 96 84 73 59 73
96 110 119 117 119 126 126 123 124 125 120 121 118 126 36 42 86 109 129
121 124 125 128 118 115 86 34 36 35 67 138 119 116 117 123 117 116 105
78 40 29 28 86 107 119 131 125 124 135 113 84 52 29 32 42 34 31 52 64 58
34 46 48 87 108 116 116 121 117 123 126 123 127 120 124 120 119 117 29
40 86 101 120 113 118 117 124 121 120 96 28 36 38 77 116 117 118 117 124
117 111 96 60 42 32 21 75 92 108 134 120 124 121 140 101 70 47 32 23 20
16 10 14 19 35 58 88 113 113 121 120 117 124 127 121 121 124 118 124 131
121 120 29 42 73 99 120 111 115 129 119 113 120 81 28 40 54 70 84 107 110
126 129 105 99 72 44 42 40 47 56 77 93 111 131 123 124 129 117 100 93 58
40 46 32 29 32 54 76 96 117 121 118 121 133 131 117 120 133 124 117 116
123 131 123 125 35 44 59 85 93 109 115 120 109 99 64 43 31 36 39 40 63
88 115 141 117 80 42 29 27 39 32 40 51 58 76 96 119 120 125 119 133 137
113 97 88 85 73 70 71 89 103 118 121 117 117 121 115 120 120 119 125 118
117 111 117 121 125 121 40 44 35 54 73 103 115 115 105 81 52 42 36 46 48
58 52 91 118 118 105 91 81 81 86 79 71 75 87 92 96 105 118 124 121 129
133 131 140 125 139 116 119 117 126 119 130 127 126 119 113 117 113 121
120 121 123 123 121 117 115 125 123 124 52 59 50 36 79 100 117 118 108
92 89 100 99 96 95 96 100 107 112 109 119 116 115 115 128 139 127 116 117
127 124 130 123 123 124 126 127 121 123 128 123 121 128 135 129 125 120
119 117 124 119 117 121 124 124 127 120 118 123 123 124 121 125 123 94
97 99 104 108 113 117 117 119 113 111 130 149 115 115 116 128 118 117 123
133 126 130 133 128 137 150 134 146 134 139 128 126 121 124 125 119 126
124 121 120 121 126 121 120 121 119 121 125 121 126 118 119 120 130 131
117 118 124 124 119 123 127 125 136 131 142 160 131 120 119 116 120 129
120 131 125 125 124 131 131 144 126 128 134 131 133 137 129 125 121 119
124 123 124 125 124 128 124 125 124 128 123 128 125 126 120 121 121 123
120 121 126 124 123 120 124 121 129 134 120 116 119 125 124 126 119 123
136 136 135 141 120 118 120 123 117 125 121 120 124 135 144 129 129 137
127 125 129 129 126 130 126 119 118 120 116 118 125 129 125 125 126 125
137 124 125 121 128 125 126 131 126 123 120 118 125 124 123 120 123 121
123 130 121 120 124 124 123 130 121 121 120 120 125 121 123 126 121 123
123 123 121 117 121 128 129 118 126 127 124 124 124 129 124 125 126 128
123 123 124 119 127 126 128 126 127 124 128 123 124 129 130 120 125 131
125 124 121 117 125 126 119 121 128 127 123 128 123 125 127 125 121 130
127 125 