<svg xmlns='http://www.w3.org/2000/svg' class="pikchr" viewBox="0 0 838.829 390.032">
<circle cx="38" cy="189" r="36"  style="fill:none;stroke-width:2.16;stroke:rgb(0,0,0);" />
<text x="38" y="189" text-anchor="middle" fill="rgb(0,0,0)" dominant-baseline="central">maker</text>
<polygon points="218,189 206,193 206,185" style="fill:rgb(0,0,0)"/>
<path d="M74,189L212,189"  style="fill:none;stroke-width:2.16;stroke:rgb(0,0,0);" />
<text x="272" y="189" text-anchor="middle" fill="rgb(0,0,0)" dominant-baseline="central">...</text>
<polygon points="398,189 386,193 386,185" style="fill:rgb(0,0,0)"/>
<path d="M326,189L392,189"  style="fill:none;stroke-width:2.16;stroke:rgb(0,0,0);" />
<text x="452" y="189" text-anchor="middle" fill="rgb(0,0,0)" dominant-baseline="central">...</text>
<polygon points="578,189 566,193 566,185" style="fill:rgb(0,0,0)"/>
<path d="M506,189L572,189"  style="fill:none;stroke-width:2.16;stroke:rgb(0,0,0);" />
<text x="632" y="189" text-anchor="middle" fill="rgb(0,0,0)" dominant-baseline="central">...</text>
<polygon points="758,189 746,193 746,185" style="fill:rgb(0,0,0)"/>
<path d="M686,189L752,189"  style="fill:none;stroke-width:2.16;stroke:rgb(0,0,0);" />
<circle cx="794" cy="189" r="36"  style="fill:none;stroke-width:2.16;stroke:rgb(0,0,0);" />
<text x="794" y="189" text-anchor="middle" fill="rgb(0,0,0)" dominant-baseline="central">completer</text>
<polygon points="218,92 206,96 206,87" style="fill:rgb(0,0,0)"/>
<path d="M63,164L135,92L212,92"  style="fill:none;stroke-width:2.16;stroke-linejoin:round;stroke:rgb(0,0,0);" />
<path d="M218,117L273,117L273,66L218,66Z"  style="fill:none;stroke-width:2.16;stroke:rgb(0,0,0);" />
<text x="245" y="82" text-anchor="middle" fill="rgb(0,0,0)" dominant-baseline="central">tasks</text>
<text x="245" y="102" text-anchor="middle" fill="rgb(0,0,0)" dominant-baseline="central">#3</text>
<polygon points="398,92 386,96 386,87" style="fill:rgb(0,0,0)"/>
<path d="M273,92L392,92"  style="fill:none;stroke-width:2.16;stroke:rgb(0,0,0);" />
<circle cx="434" cy="92" r="36"  style="fill:none;stroke-width:2.16;stroke:rgb(0,0,0);" />
<text x="434" y="92" text-anchor="middle" fill="rgb(0,0,0)" dominant-baseline="central">worker</text>
<polygon points="578,92 566,96 566,87" style="fill:rgb(0,0,0)"/>
<path d="M470,92L572,92"  style="fill:none;stroke-width:2.16;stroke:rgb(0,0,0);" />
<path d="M578,117L671,117L671,66L578,66Z"  style="fill:none;stroke-width:2.16;stroke:rgb(0,0,0);" />
<text x="624" y="82" text-anchor="middle" fill="rgb(0,0,0)" dominant-baseline="central">results</text>
<text x="624" y="102" text-anchor="middle" fill="rgb(0,0,0)" dominant-baseline="central">#workers</text>
<polygon points="218,287 206,291 206,282" style="fill:rgb(0,0,0)"/>
<path d="M63,215L135,287L212,287"  style="fill:none;stroke-width:2.16;stroke-linejoin:round;stroke:rgb(0,0,0);" />
<path d="M218,312L273,312L273,261L218,261Z"  style="fill:none;stroke-width:2.16;stroke:rgb(0,0,0);" />
<text x="245" y="276" text-anchor="middle" fill="rgb(0,0,0)" dominant-baseline="central">tasks</text>
<text x="245" y="297" text-anchor="middle" fill="rgb(0,0,0)" dominant-baseline="central">#3</text>
<polygon points="398,287 386,291 386,282" style="fill:rgb(0,0,0)"/>
<path d="M273,287L392,287"  style="fill:none;stroke-width:2.16;stroke:rgb(0,0,0);" />
<circle cx="434" cy="287" r="36"  style="fill:none;stroke-width:2.16;stroke:rgb(0,0,0);" />
<text x="434" y="287" text-anchor="middle" fill="rgb(0,0,0)" dominant-baseline="central">worker</text>
<polygon points="578,287 566,291 566,282" style="fill:rgb(0,0,0)"/>
<path d="M470,287L572,287"  style="fill:none;stroke-width:2.16;stroke:rgb(0,0,0);" />
<path d="M578,312L671,312L671,261L578,261Z"  style="fill:none;stroke-width:2.16;stroke:rgb(0,0,0);" />
<text x="624" y="276" text-anchor="middle" fill="rgb(0,0,0)" dominant-baseline="central">results</text>
<text x="624" y="297" text-anchor="middle" fill="rgb(0,0,0)" dominant-baseline="central">#workers</text>
<polygon points="768,164 757,159 763,152" style="fill:rgb(0,0,0)"/>
<path d="M764,160L696,92L671,92"  style="fill:none;stroke-width:2.16;stroke-linejoin:round;stroke:rgb(0,0,0);" />
<polygon points="768,215 763,226 757,220" style="fill:rgb(0,0,0)"/>
<path d="M764,219L696,287L671,287"  style="fill:none;stroke-width:2.16;stroke-linejoin:round;stroke:rgb(0,0,0);" />
<path d="M387,387L480,387L480,337L387,337Z"  style="fill:none;stroke-width:2.16;stroke:rgb(0,0,0);" />
<text x="434" y="352" text-anchor="middle" fill="rgb(0,0,0)" dominant-baseline="central">pickup</text>
<text x="434" y="372" text-anchor="middle" fill="rgb(0,0,0)" dominant-baseline="central">#workers</text>
<polygon points="387,362 376,366 376,358" style="fill:rgb(0,0,0)"/>
<path d="M38,225L38,362L381,362"  style="fill:none;stroke-width:2.16;stroke-linejoin:round;stroke:rgb(0,0,0);" />
<polygon points="794,225 798,237 789,237" style="fill:rgb(0,0,0)"/>
<path d="M480,362L794,362L794,231"  style="fill:none;stroke-width:2.16;stroke-linejoin:round;stroke:rgb(0,0,0);" />
<path d="M199,52L292,52L292,2L199,2Z"  style="fill:none;stroke-width:2.16;stroke:rgb(0,0,0);" />
<text x="245" y="17" text-anchor="middle" fill="rgb(0,0,0)" dominant-baseline="central">idle</text>
<text x="245" y="37" text-anchor="middle" fill="rgb(0,0,0)" dominant-baseline="central">#workers</text>
<polygon points="292,27 303,23 303,31" style="fill:rgb(0,0,0)"/>
<path d="M434,56L434,27L298,27"  style="fill:none;stroke-width:2.16;stroke-linejoin:round;stroke:rgb(0,0,0);" />
<polygon points="292,27 301,35 293,39" style="fill:rgb(0,0,0)"/>
<path d="M408,261L295,32"  style="fill:none;stroke-width:2.16;stroke:rgb(0,0,0);" />
<polygon points="38,153 33,142 42,142" style="fill:rgb(0,0,0)"/>
<path d="M199,27L38,27L38,147"  style="fill:none;stroke-width:2.16;stroke-linejoin:round;stroke:rgb(0,0,0);" />
</svg>

